<svg width="24" height="24" viewBox="0 0 24 24" fill="none" xmlns="http://www.w3.org/2000/svg">
<rect width="24" height="24" rx="3" fill="#4D77FF"/>
<path d="M11.8405 16.9545C11.3023 17.6029 10.5415 18.1076 9.55814 18.4686C8.57475 18.8229 7.48505 19 6.28904 19C5.03322 19 3.93023 18.7259 2.98007 18.1778C2.03654 17.623 1.30565 16.8209 0.787375 15.7714C0.275748 14.7219 0.013289 13.4886 0 12.0715V11.0789C0 9.62166 0.242525 8.36163 0.727575 7.2988C1.21927 6.22928 1.92359 5.41377 2.84053 4.85227C3.76412 4.28409 4.84385 4 6.07973 4C7.80066 4 9.14618 4.41444 10.1163 5.24332C11.0864 6.06551 11.6611 7.26537 11.8405 8.84291H8.93023C8.79734 8.00735 8.50166 7.39572 8.04319 7.00802C7.59136 6.62032 6.96678 6.42647 6.16944 6.42647C5.15282 6.42647 4.37874 6.81083 3.84718 7.57955C3.31561 8.34826 3.04651 9.49131 3.03987 11.0087V11.9412C3.03987 13.4719 3.3289 14.6283 3.90698 15.4104C4.48505 16.1925 5.33223 16.5836 6.4485 16.5836C7.57143 16.5836 8.37209 16.3429 8.8505 15.8616V13.3449H6.12957V11.129H11.8405V16.9545Z" fill="white"/>
<path d="M23.0033 12.4726H17.2625V16.383H24V18.7995H14.2724V4.20053H23.9801V6.63703H17.2625V10.1163H23.0033V12.4726Z" fill="white"/>
</svg>
